<?xml version="1.0" encoding="iso-8859-1"?>
<!-- Generator: Adobe Illustrator 19.0.0, SVG Export Plug-In . SVG Version: 6.00 Build 0)  -->
<svg xmlns="http://www.w3.org/2000/svg" xmlns:xlink="http://www.w3.org/1999/xlink" version="1.1" id="Capa_1" x="0px" y="0px" viewBox="0 0 496 496" style="enable-background:new 0 0 496 496;" xml:space="preserve" width="512px" height="512px">
<g>
	<g>
		<g>
			<path d="M228,160H76v80h152V160z M212,224H92v-48h120V224z" fill="#FFFFFF"/>
			<rect x="116" y="256" width="16" height="16" fill="#FFFFFF"/>
			<rect x="148" y="256" width="80" height="16" fill="#FFFFFF"/>
			<rect x="116" y="288" width="112" height="16" fill="#FFFFFF"/>
			<rect x="116" y="320" width="112" height="16" fill="#FFFFFF"/>
			<rect x="76" y="352" width="152" height="16" fill="#FFFFFF"/>
			<rect x="308" y="160" width="120" height="16" fill="#FFFFFF"/>
			<rect x="276" y="160" width="16" height="16" fill="#FFFFFF"/>
			<rect x="276" y="192" width="152" height="16" fill="#FFFFFF"/>
			<rect x="276" y="224" width="152" height="16" fill="#FFFFFF"/>
			<rect x="276" y="256" width="112" height="16" fill="#FFFFFF"/>
			<rect x="276" y="288" width="112" height="16" fill="#FFFFFF"/>
			<rect x="276" y="320" width="112" height="16" fill="#FFFFFF"/>
			<rect x="76" y="384" width="152" height="16" fill="#FFFFFF"/>
			<rect x="76" y="416" width="152" height="16" fill="#FFFFFF"/>
			<rect x="276" y="352" width="120" height="16" fill="#FFFFFF"/>
			<rect x="412" y="352" width="16" height="16" fill="#FFFFFF"/>
			<rect x="212" y="448" width="16" height="16" fill="#FFFFFF"/>
			<rect x="76" y="448" width="120" height="16" fill="#FFFFFF"/>
			<path d="M388,384c-22.056,0-40,17.944-40,40c0,22.056,17.944,40,40,40c22.056,0,40-17.944,40-40C428,401.944,410.056,384,388,384     z M388,448c-13.232,0-24-10.768-24-24s10.768-24,24-24s24,10.768,24,24S401.232,448,388,448z" fill="#FFFFFF"/>
			<rect x="276" y="384" width="56" height="16" fill="#FFFFFF"/>
			<rect x="276" y="416" width="56" height="16" fill="#FFFFFF"/>
			<rect x="276" y="448" width="56" height="16" fill="#FFFFFF"/>
			<path d="M481.368,290.056L460,268.688v-137.84H335.824C338.592,122.216,340,113.216,340,104V88c0-48.52-39.48-88-88-88     c-48.52,0-88,39.48-88,88v16c0,9.224,1.408,18.216,4.176,26.848H44v131.008c-2.112,1.376-4.12,2.944-5.944,4.768l-23.432,23.432     C7.776,296.912,4,306.024,4,315.712C4,335.72,20.28,352,40.288,352c1.264,0,2.48-0.24,3.712-0.36V496h416V351.568     c17.968-2.152,32-17.312,32-35.856C492,306.024,488.224,296.904,481.368,290.056z M180,88c0-39.696,32.304-72,72-72     s72,32.304,72,72v16c0,9.312-1.816,18.32-5.256,26.848H185.256C181.816,122.32,180,113.312,180,104V88z M40.288,336     C29.104,336,20,326.896,20,315.712c0-5.416,2.112-10.512,5.944-14.344l23.432-23.432C53.2,274.112,58.296,272,63.712,272     C74.896,272,84,281.104,84,292.288c0,5.416-2.112,10.512-5.944,14.344l-23.432,23.432C50.8,333.888,45.704,336,40.288,336z      M244,480H60V346.144c2.112-1.376,4.12-2.944,5.944-4.768l23.432-23.432C96.224,311.088,100,301.976,100,292.288     C100,272.28,83.72,256,63.712,256c-1.256,0-2.472,0.24-3.712,0.36V146.848h184V480z M444.008,480H260V146.848h184V258.08     c-3.736-1.28-7.648-2.08-11.712-2.08C412.28,256,396,272.28,396,292.288c0,9.688,3.776,18.808,10.632,25.656l23.432,23.432     c3.976,3.976,8.768,6.776,13.944,8.544V480z M455.712,336c-5.416,0-10.512-2.112-14.344-5.944l-23.432-23.432     c-3.824-3.824-5.936-8.92-5.936-14.336c0-11.184,9.104-20.288,20.288-20.288c5.416,0,10.512,2.112,14.344,5.944l23.432,23.432     c3.824,3.824,5.936,8.92,5.936,14.336C476,326.896,466.896,336,455.712,336z" fill="#FFFFFF"/>
		</g>
	</g>
</g>
<g>
</g>
<g>
</g>
<g>
</g>
<g>
</g>
<g>
</g>
<g>
</g>
<g>
</g>
<g>
</g>
<g>
</g>
<g>
</g>
<g>
</g>
<g>
</g>
<g>
</g>
<g>
</g>
<g>
</g>
</svg>
